<?xml version="1.0" encoding="utf-8"?>
<!-- Generator: Adobe Illustrator 24.0.3, SVG Export Plug-In . SVG Version: 6.00 Build 0)  -->
<svg version="1.1" id="Layer_1" xmlns="http://www.w3.org/2000/svg" xmlns:xlink="http://www.w3.org/1999/xlink" x="0px" y="0px"
	 viewBox="0 0 228 157" style="enable-background:new 0 0 228 157;" xml:space="preserve">
<style type="text/css">
	.st0{filter:url(#auhalbwiqa);}
	.st1{fill-rule:evenodd;clip-rule:evenodd;}
	.st2{fill-rule:evenodd;clip-rule:evenodd;fill:#D8D8D8;fill-opacity:0;stroke:#FAFAFA;stroke-width:4.6262;}
</style>
<filter  filterUnits="objectBoundingBox" height="501.8%" id="auhalbwiqa" width="255.8%" x="-56.9%" y="-145.7%">
	<feMorphology  in="SourceAlpha" operator="dilate" radius="4.5" result="shadowSpreadOuter1"></feMorphology>
	<feOffset  dy="20" in="shadowSpreadOuter1" result="shadowOffsetOuter1"></feOffset>
	<feGaussianBlur  in="shadowOffsetOuter1" result="shadowBlurOuter1" stdDeviation="17.5"></feGaussianBlur>
	<feComposite  in="shadowBlurOuter1" in2="SourceAlpha" operator="out" result="shadowBlurOuter1"></feComposite>
	<feColorMatrix  in="shadowBlurOuter1" values="0 0 0 0 0.576470588 0 0 0 0 0.82745098 0 0 0 0 0.847058824 0 0 0 1 0">
		</feColorMatrix>
</filter>
<g>
	<g>
		<g>
			<g transform="translate(-1212 -84) translate(1010 120) scale(1 -1) rotate(13 875.72 0)">
				<g class="st0">
					<path id="pumtomq8fb_2_" class="st1" d="M209.6,49h8.3l3.9-2.5l8,9.4h6.4l6.2-3l2.7,12.3h5l6.9-4.1l4,4.1l7-8l4.4,2.1l3.1-2.1
						l8.3,5.2l4.5-1.3l3.7,4.1l3.6-2.8l4.8,4.1l3.9-1.3l6.2,6.8h4.6l7.7,2.8l6.8-2.8l11.5,13.5l5.9-1.7l6.8,19.7l4.4-1.5l4.6,3.2
						l6-3.2l5,3.2l3.2-11.9V91l3.7-3.5h5.4l8.2,10.9l2.9-0.7l4-2.9l7.4,7.1l4.1-9.8h12.8"/>
				</g>
				<g>
					<path id="pumtomq8fb_1_" class="st2" d="M209.6,49h8.3l3.9-2.5l8,9.4h6.4l6.2-3l2.7,12.3h5l6.9-4.1l4,4.1l7-8l4.4,2.1l3.1-2.1
						l8.3,5.2l4.5-1.3l3.7,4.1l3.6-2.8l4.8,4.1l3.9-1.3l6.2,6.8h4.6l7.7,2.8l6.8-2.8l11.5,13.5l5.9-1.7l6.8,19.7l4.4-1.5l4.6,3.2
						l6-3.2l5,3.2l3.2-11.9V91l3.7-3.5h5.4l8.2,10.9l2.9-0.7l4-2.9l7.4,7.1l4.1-9.8h12.8"/>
				</g>
			</g>
		</g>
	</g>
</g>
</svg>
