<?xml version="1.0" encoding="utf-8"?>
<?xml-stylesheet href="../../css/main.css" type="text/css"?>
<!-- Generator: Adobe Illustrator 24.0.3, SVG Export Plug-In . SVG Version: 6.00 Build 0)  -->
<svg version="1.1" id="Layer_1" xmlns="http://www.w3.org/2000/svg" xmlns:xlink="http://www.w3.org/1999/xlink" x="0px" y="0px"
	 viewBox="0 0 500 372.5" enable-background="new 0 0 500 372.5" xml:space="preserve">
<g>
	<rect x="203.1" y="62.2" fill="#E0E0E0" width="242.3" height="233.5"/>
	<rect x="207" y="66.4" fill="#F5F5F5" width="238.4" height="225.2"/>
	<g>
		<polygon fill="#E6E6E6" points="208.8,237.1 208.8,169.4 215.8,169.4 215.8,160.4 231.7,153 231.7,143.8 234.3,143.8 234.3,169.4 
			236.9,169.4 236.9,237.1 240.5,237.1 240.5,201.9 248.4,201.9 248.4,183.4 251,183.4 251,237.1 257.2,237.1 257.2,216.9 
			261.6,216.9 261.6,211.6 271.3,211.6 271.3,193.1 276.5,193.1 276.5,180.8 282.7,180.8 282.7,162.3 285.3,162.3 285.3,180.8 
			291.5,180.8 291.5,193.1 296.8,193.1 296.8,211.6 306.4,211.6 306.4,216.9 310.8,216.9 310.8,237.1 316.1,237.1 316.1,211.6 
			325.8,211.6 325.8,155.3 328.4,155.3 328.4,149.1 349.6,149.1 349.6,155.3 354,155.3 354,195.7 371.5,195.7 371.5,200.1 
			377.7,200.1 377.7,202.8 371.5,202.8 371.5,218.6 390,218.6 390,165.8 393.5,165.8 393.5,155.3 402.3,155.3 402.3,114.8 
			405,114.8 405,155.3 411.1,155.3 411.1,165.8 445.4,165.8 445.4,291.6 207,291.6 207,237.1 		"/>
		<g>
			<rect x="424.6" y="168.6" fill="#F0F0F0" width="2.5" height="2.5"/>
			<rect x="424.6" y="172.8" fill="#F0F0F0" width="2.5" height="2.5"/>
			<rect x="424.6" y="189.5" fill="#F0F0F0" width="2.5" height="2.5"/>
			<rect x="424.6" y="193.7" fill="#F0F0F0" width="2.5" height="2.5"/>
			<rect x="424.6" y="197.8" fill="#F0F0F0" width="2.5" height="2.5"/>
			<rect x="424.6" y="210.4" fill="#F0F0F0" width="2.5" height="2.5"/>
			<rect x="424.6" y="214.6" fill="#F0F0F0" width="2.5" height="2.5"/>
			<rect x="420.6" y="185.3" fill="#F0F0F0" width="2.5" height="2.5"/>
			<rect x="420.6" y="189.5" fill="#F0F0F0" width="2.5" height="2.5"/>
			<rect x="420.6" y="193.7" fill="#F0F0F0" width="2.5" height="2.5"/>
			<rect x="420.6" y="197.8" fill="#F0F0F0" width="2.5" height="2.5"/>
			<rect x="420.6" y="202" fill="#F0F0F0" width="2.5" height="2.5"/>
			<rect x="420.6" y="210.4" fill="#F0F0F0" width="2.5" height="2.5"/>
			<rect x="420.6" y="214.6" fill="#F0F0F0" width="2.5" height="2.5"/>
			<rect x="416.7" y="168.6" fill="#F0F0F0" width="2.5" height="2.5"/>
			<rect x="416.7" y="172.8" fill="#F0F0F0" width="2.5" height="2.5"/>
			<rect x="416.7" y="176.9" fill="#F0F0F0" width="2.5" height="2.5"/>
			<rect x="416.7" y="181.1" fill="#F0F0F0" width="2.5" height="2.5"/>
			<rect x="416.7" y="185.3" fill="#F0F0F0" width="2.5" height="2.5"/>
			<rect x="416.7" y="189.5" fill="#F0F0F0" width="2.5" height="2.5"/>
			<rect x="416.7" y="193.7" fill="#F0F0F0" width="2.5" height="2.5"/>
			<rect x="416.7" y="197.8" fill="#F0F0F0" width="2.5" height="2.5"/>
			<rect x="416.7" y="202" fill="#F0F0F0" width="2.5" height="2.5"/>
			<rect x="416.7" y="206.2" fill="#F0F0F0" width="2.5" height="2.5"/>
			<rect x="416.7" y="214.6" fill="#F0F0F0" width="2.5" height="2.5"/>
			<rect x="412.7" y="168.6" fill="#F0F0F0" width="2.5" height="2.5"/>
			<rect x="412.7" y="172.8" fill="#F0F0F0" width="2.5" height="2.5"/>
			<rect x="412.7" y="176.9" fill="#F0F0F0" width="2.5" height="2.5"/>
			<rect x="412.7" y="181.1" fill="#F0F0F0" width="2.5" height="2.5"/>
			<rect x="412.7" y="185.3" fill="#F0F0F0" width="2.5" height="2.5"/>
			<rect x="412.7" y="189.5" fill="#F0F0F0" width="2.5" height="2.5"/>
			<rect x="412.7" y="193.7" fill="#F0F0F0" width="2.5" height="2.5"/>
			<rect x="412.7" y="231.3" fill="#F0F0F0" width="2.5" height="2.5"/>
			<rect x="408.8" y="168.6" fill="#F0F0F0" width="2.5" height="2.5"/>
			<rect x="408.8" y="172.8" fill="#F0F0F0" width="2.5" height="2.5"/>
			<rect x="408.8" y="176.9" fill="#F0F0F0" width="2.5" height="2.5"/>
			<rect x="408.8" y="181.1" fill="#F0F0F0" width="2.5" height="2.5"/>
			<rect x="408.8" y="185.3" fill="#F0F0F0" width="2.5" height="2.5"/>
			<rect x="408.8" y="189.5" fill="#F0F0F0" width="2.5" height="2.5"/>
			<rect x="408.8" y="193.7" fill="#F0F0F0" width="2.5" height="2.5"/>
			<rect x="408.8" y="197.8" fill="#F0F0F0" width="2.5" height="2.5"/>
			<rect x="408.8" y="222.9" fill="#F0F0F0" width="2.5" height="2.5"/>
			<rect x="408.8" y="227.1" fill="#F0F0F0" width="2.5" height="2.5"/>
			<rect x="408.8" y="231.3" fill="#F0F0F0" width="2.5" height="2.5"/>
			<rect x="408.8" y="235.5" fill="#F0F0F0" width="2.5" height="2.5"/>
			<rect x="408.8" y="252.2" fill="#F0F0F0" width="2.5" height="2.5"/>
			<rect x="404.8" y="168.6" fill="#F0F0F0" width="2.5" height="2.5"/>
			<rect x="404.8" y="172.8" fill="#F0F0F0" width="2.5" height="2.5"/>
			<rect x="404.8" y="176.9" fill="#F0F0F0" width="2.5" height="2.5"/>
			<rect x="404.8" y="181.1" fill="#F0F0F0" width="2.5" height="2.5"/>
			<rect x="404.8" y="185.3" fill="#F0F0F0" width="2.5" height="2.5"/>
			<rect x="404.8" y="189.5" fill="#F0F0F0" width="2.5" height="2.5"/>
			<rect x="404.8" y="193.7" fill="#F0F0F0" width="2.5" height="2.5"/>
			<rect x="404.8" y="197.8" fill="#F0F0F0" width="2.5" height="2.5"/>
			<rect x="404.8" y="202" fill="#F0F0F0" width="2.5" height="2.5"/>
			<rect x="404.8" y="206.2" fill="#F0F0F0" width="2.5" height="2.5"/>
			<rect x="404.8" y="218.7" fill="#F0F0F0" width="2.5" height="2.5"/>
			<rect x="404.8" y="222.9" fill="#F0F0F0" width="2.5" height="2.5"/>
			<rect x="404.8" y="227.1" fill="#F0F0F0" width="2.5" height="2.5"/>
			<rect x="404.8" y="231.3" fill="#F0F0F0" width="2.5" height="2.5"/>
			<rect x="404.8" y="235.5" fill="#F0F0F0" width="2.5" height="2.5"/>
			<rect x="404.8" y="252.2" fill="#F0F0F0" width="2.5" height="2.5"/>
			<rect x="400.9" y="168.6" fill="#F0F0F0" width="2.5" height="2.5"/>
			<rect x="400.9" y="172.8" fill="#F0F0F0" width="2.5" height="2.5"/>
			<rect x="400.9" y="176.9" fill="#F0F0F0" width="2.5" height="2.5"/>
			<rect x="400.9" y="181.1" fill="#F0F0F0" width="2.5" height="2.5"/>
			<rect x="400.9" y="185.3" fill="#F0F0F0" width="2.5" height="2.5"/>
			<rect x="400.9" y="189.5" fill="#F0F0F0" width="2.5" height="2.5"/>
			<rect x="400.9" y="193.7" fill="#F0F0F0" width="2.5" height="2.5"/>
			<rect x="400.9" y="197.8" fill="#F0F0F0" width="2.5" height="2.5"/>
			<rect x="400.9" y="202" fill="#F0F0F0" width="2.5" height="2.5"/>
			<rect x="400.9" y="206.2" fill="#F0F0F0" width="2.5" height="2.5"/>
			<rect x="400.9" y="210.4" fill="#F0F0F0" width="2.5" height="2.5"/>
			<rect x="400.9" y="214.6" fill="#F0F0F0" width="2.5" height="2.5"/>
			<rect x="400.9" y="218.7" fill="#F0F0F0" width="2.5" height="2.5"/>
			<rect x="400.9" y="222.9" fill="#F0F0F0" width="2.5" height="2.5"/>
			<rect x="400.9" y="227.1" fill="#F0F0F0" width="2.5" height="2.5"/>
			<rect x="400.9" y="231.3" fill="#F0F0F0" width="2.5" height="2.5"/>
			<rect x="400.9" y="235.5" fill="#F0F0F0" width="2.5" height="2.5"/>
			<rect x="400.9" y="239.6" fill="#F0F0F0" width="2.5" height="2.5"/>
			<rect x="396.9" y="168.6" fill="#F0F0F0" width="2.5" height="2.5"/>
			<rect x="396.9" y="172.8" fill="#F0F0F0" width="2.5" height="2.5"/>
			<rect x="396.9" y="176.9" fill="#F0F0F0" width="2.5" height="2.5"/>
			<rect x="396.9" y="181.1" fill="#F0F0F0" width="2.5" height="2.5"/>
			<rect x="396.9" y="185.3" fill="#F0F0F0" width="2.5" height="2.5"/>
			<rect x="396.9" y="189.5" fill="#F0F0F0" width="2.5" height="2.5"/>
			<rect x="396.9" y="193.7" fill="#F0F0F0" width="2.5" height="2.5"/>
			<rect x="396.9" y="197.8" fill="#F0F0F0" width="2.5" height="2.5"/>
			<rect x="396.9" y="202" fill="#F0F0F0" width="2.5" height="2.5"/>
			<rect x="396.9" y="206.2" fill="#F0F0F0" width="2.5" height="2.5"/>
			<rect x="396.9" y="218.7" fill="#F0F0F0" width="2.5" height="2.5"/>
			<rect x="396.9" y="222.9" fill="#F0F0F0" width="2.5" height="2.5"/>
			<rect x="396.9" y="227.1" fill="#F0F0F0" width="2.5" height="2.5"/>
			<rect x="396.9" y="231.3" fill="#F0F0F0" width="2.5" height="2.5"/>
			<rect x="392.9" y="168.6" fill="#F0F0F0" width="2.5" height="2.5"/>
			<rect x="392.9" y="172.8" fill="#F0F0F0" width="2.5" height="2.5"/>
			<rect x="392.9" y="176.9" fill="#F0F0F0" width="2.5" height="2.5"/>
			<rect x="392.9" y="181.1" fill="#F0F0F0" width="2.5" height="2.5"/>
			<rect x="392.9" y="185.3" fill="#F0F0F0" width="2.5" height="2.5"/>
			<rect x="392.9" y="189.5" fill="#F0F0F0" width="2.5" height="2.5"/>
			<rect x="392.9" y="193.7" fill="#F0F0F0" width="2.5" height="2.5"/>
			<rect x="392.9" y="197.8" fill="#F0F0F0" width="2.5" height="2.5"/>
			<rect x="392.9" y="202" fill="#F0F0F0" width="2.5" height="2.5"/>
			<rect x="392.9" y="206.2" fill="#F0F0F0" width="2.5" height="2.5"/>
			<rect x="392.9" y="218.7" fill="#F0F0F0" width="2.5" height="2.5"/>
			<rect x="392.9" y="222.9" fill="#F0F0F0" width="2.5" height="2.5"/>
			<rect x="392.9" y="227.1" fill="#F0F0F0" width="2.5" height="2.5"/>
			<rect x="348.4" y="157.7" fill="#F0F0F0" width="2.5" height="2.5"/>
			<rect x="348.4" y="161.9" fill="#F0F0F0" width="2.5" height="2.5"/>
			<rect x="348.4" y="166.1" fill="#F0F0F0" width="2.5" height="2.5"/>
			<rect x="348.4" y="170.3" fill="#F0F0F0" width="2.5" height="2.5"/>
			<rect x="348.4" y="174.5" fill="#F0F0F0" width="2.5" height="2.5"/>
			<rect x="348.4" y="178.6" fill="#F0F0F0" width="2.5" height="2.5"/>
			<rect x="348.4" y="182.8" fill="#F0F0F0" width="2.5" height="2.5"/>
			<rect x="348.4" y="187" fill="#F0F0F0" width="2.5" height="2.5"/>
			<rect x="348.4" y="199.5" fill="#F0F0F0" width="2.5" height="2.5"/>
			<rect x="348.4" y="203.7" fill="#F0F0F0" width="2.5" height="2.5"/>
			<rect x="344.4" y="157.7" fill="#F0F0F0" width="2.5" height="2.5"/>
			<rect x="344.4" y="161.9" fill="#F0F0F0" width="2.5" height="2.5"/>
			<rect x="344.4" y="166.1" fill="#F0F0F0" width="2.5" height="2.5"/>
			<rect x="344.4" y="170.3" fill="#F0F0F0" width="2.5" height="2.5"/>
			<rect x="344.4" y="174.5" fill="#F0F0F0" width="2.5" height="2.5"/>
			<rect x="344.4" y="178.6" fill="#F0F0F0" width="2.5" height="2.5"/>
			<rect x="344.4" y="182.8" fill="#F0F0F0" width="2.5" height="2.5"/>
			<rect x="344.4" y="187" fill="#F0F0F0" width="2.5" height="2.5"/>
			<rect x="344.4" y="203.7" fill="#F0F0F0" width="2.5" height="2.5"/>
			<rect x="340.4" y="157.7" fill="#F0F0F0" width="2.5" height="2.5"/>
			<rect x="340.4" y="161.9" fill="#F0F0F0" width="2.5" height="2.5"/>
			<rect x="340.4" y="166.1" fill="#F0F0F0" width="2.5" height="2.5"/>
			<rect x="340.4" y="170.3" fill="#F0F0F0" width="2.5" height="2.5"/>
			<rect x="340.4" y="174.5" fill="#F0F0F0" width="2.5" height="2.5"/>
			<rect x="340.4" y="178.6" fill="#F0F0F0" width="2.5" height="2.5"/>
			<rect x="340.4" y="182.8" fill="#F0F0F0" width="2.5" height="2.5"/>
			<rect x="340.4" y="187" fill="#F0F0F0" width="2.5" height="2.5"/>
			<rect x="336.5" y="157.7" fill="#F0F0F0" width="2.5" height="2.5"/>
			<rect x="336.5" y="161.9" fill="#F0F0F0" width="2.5" height="2.5"/>
			<rect x="336.5" y="166.1" fill="#F0F0F0" width="2.5" height="2.5"/>
			<rect x="336.5" y="170.3" fill="#F0F0F0" width="2.5" height="2.5"/>
			<rect x="336.5" y="174.5" fill="#F0F0F0" width="2.5" height="2.5"/>
			<rect x="336.5" y="178.6" fill="#F0F0F0" width="2.5" height="2.5"/>
			<rect x="336.5" y="187" fill="#F0F0F0" width="2.5" height="2.5"/>
			<rect x="336.5" y="191.2" fill="#F0F0F0" width="2.5" height="2.5"/>
			<rect x="336.5" y="203.7" fill="#F0F0F0" width="2.5" height="2.5"/>
			<rect x="336.5" y="207.9" fill="#F0F0F0" width="2.5" height="2.5"/>
			<rect x="336.5" y="212.1" fill="#F0F0F0" width="2.5" height="2.5"/>
			<rect x="336.5" y="216.2" fill="#F0F0F0" width="2.5" height="2.5"/>
			<rect x="336.5" y="220.4" fill="#F0F0F0" width="2.5" height="2.5"/>
			<rect x="336.5" y="224.6" fill="#F0F0F0" width="2.5" height="2.5"/>
			<rect x="336.5" y="228.8" fill="#F0F0F0" width="2.5" height="2.5"/>
			<rect x="332.5" y="157.7" fill="#F0F0F0" width="2.5" height="2.5"/>
			<rect x="332.5" y="161.9" fill="#F0F0F0" width="2.5" height="2.5"/>
			<rect x="332.5" y="166.1" fill="#F0F0F0" width="2.5" height="2.5"/>
			<rect x="332.5" y="170.3" fill="#F0F0F0" width="2.5" height="2.5"/>
			<rect x="332.5" y="174.5" fill="#F0F0F0" width="2.5" height="2.5"/>
			<rect x="332.5" y="178.6" fill="#F0F0F0" width="2.5" height="2.5"/>
			<rect x="332.5" y="191.2" fill="#F0F0F0" width="2.5" height="2.5"/>
			<rect x="332.5" y="195.4" fill="#F0F0F0" width="2.5" height="2.5"/>
			<rect x="332.5" y="199.5" fill="#F0F0F0" width="2.5" height="2.5"/>
			<rect x="332.5" y="203.7" fill="#F0F0F0" width="2.5" height="2.5"/>
			<rect x="332.5" y="207.9" fill="#F0F0F0" width="2.5" height="2.5"/>
			<rect x="332.5" y="212.1" fill="#F0F0F0" width="2.5" height="2.5"/>
			<rect x="332.5" y="216.2" fill="#F0F0F0" width="2.5" height="2.5"/>
			<rect x="332.5" y="220.4" fill="#F0F0F0" width="2.5" height="2.5"/>
			<rect x="332.5" y="224.6" fill="#F0F0F0" width="2.5" height="2.5"/>
			<rect x="332.5" y="228.8" fill="#F0F0F0" width="2.5" height="2.5"/>
			<rect x="332.5" y="233" fill="#F0F0F0" width="2.5" height="2.5"/>
			<rect x="332.5" y="241.3" fill="#F0F0F0" width="2.5" height="2.5"/>
			<rect x="328.6" y="157.7" fill="#F0F0F0" width="2.5" height="2.5"/>
			<rect x="328.6" y="161.9" fill="#F0F0F0" width="2.5" height="2.5"/>
			<rect x="328.6" y="166.1" fill="#F0F0F0" width="2.5" height="2.5"/>
			<rect x="328.6" y="170.3" fill="#F0F0F0" width="2.5" height="2.5"/>
			<rect x="328.6" y="174.5" fill="#F0F0F0" width="2.5" height="2.5"/>
			<rect x="328.6" y="178.6" fill="#F0F0F0" width="2.5" height="2.5"/>
			<rect x="328.6" y="191.2" fill="#F0F0F0" width="2.5" height="2.5"/>
			<rect x="328.6" y="195.4" fill="#F0F0F0" width="2.5" height="2.5"/>
			<rect x="328.6" y="199.5" fill="#F0F0F0" width="2.5" height="2.5"/>
			<rect x="328.6" y="203.7" fill="#F0F0F0" width="2.5" height="2.5"/>
			<rect x="328.6" y="216.2" fill="#F0F0F0" width="2.5" height="2.5"/>
			<rect x="328.6" y="220.4" fill="#F0F0F0" width="2.5" height="2.5"/>
			<rect x="328.6" y="224.6" fill="#F0F0F0" width="2.5" height="2.5"/>
			<rect x="328.6" y="228.8" fill="#F0F0F0" width="2.5" height="2.5"/>
			<rect x="328.6" y="233" fill="#F0F0F0" width="2.5" height="2.5"/>
			<rect x="328.6" y="241.3" fill="#F0F0F0" width="2.5" height="2.5"/>
			<rect x="328.6" y="245.5" fill="#F0F0F0" width="2.5" height="2.5"/>
			<rect x="292.6" y="196.6" fill="#F0F0F0" width="2.5" height="2.5"/>
			<rect x="292.6" y="200.8" fill="#F0F0F0" width="2.5" height="2.5"/>
			<rect x="292.6" y="205" fill="#F0F0F0" width="2.5" height="2.5"/>
			<rect x="292.6" y="209.1" fill="#F0F0F0" width="2.5" height="2.5"/>
			<rect x="292.6" y="213.3" fill="#F0F0F0" width="2.5" height="2.5"/>
			<rect x="292.6" y="217.5" fill="#F0F0F0" width="2.5" height="2.5"/>
			<rect x="292.6" y="221.7" fill="#F0F0F0" width="2.5" height="2.5"/>
			<rect x="292.6" y="234.2" fill="#F0F0F0" width="2.5" height="2.5"/>
			<rect x="292.6" y="238.4" fill="#F0F0F0" width="2.5" height="2.5"/>
			<rect x="292.6" y="242.6" fill="#F0F0F0" width="2.5" height="2.5"/>
			<rect x="288.7" y="196.6" fill="#F0F0F0" width="2.5" height="2.5"/>
			<rect x="288.7" y="200.8" fill="#F0F0F0" width="2.5" height="2.5"/>
			<rect x="288.7" y="205" fill="#F0F0F0" width="2.5" height="2.5"/>
			<rect x="288.7" y="209.1" fill="#F0F0F0" width="2.5" height="2.5"/>
			<rect x="288.7" y="213.3" fill="#F0F0F0" width="2.5" height="2.5"/>
			<rect x="288.7" y="217.5" fill="#F0F0F0" width="2.5" height="2.5"/>
			<rect x="288.7" y="221.7" fill="#F0F0F0" width="2.5" height="2.5"/>
			<rect x="284.7" y="196.6" fill="#F0F0F0" width="2.5" height="2.5"/>
			<rect x="284.7" y="200.8" fill="#F0F0F0" width="2.5" height="2.5"/>
			<rect x="284.7" y="205" fill="#F0F0F0" width="2.5" height="2.5"/>
			<rect x="284.7" y="209.1" fill="#F0F0F0" width="2.5" height="2.5"/>
			<rect x="284.7" y="213.3" fill="#F0F0F0" width="2.5" height="2.5"/>
			<rect x="284.7" y="217.5" fill="#F0F0F0" width="2.5" height="2.5"/>
			<rect x="284.7" y="221.7" fill="#F0F0F0" width="2.5" height="2.5"/>
			<rect x="280.8" y="196.6" fill="#F0F0F0" width="2.5" height="2.5"/>
			<rect x="280.8" y="200.8" fill="#F0F0F0" width="2.5" height="2.5"/>
			<rect x="280.8" y="205" fill="#F0F0F0" width="2.5" height="2.5"/>
			<rect x="280.8" y="209.1" fill="#F0F0F0" width="2.5" height="2.5"/>
			<rect x="280.8" y="213.3" fill="#F0F0F0" width="2.5" height="2.5"/>
			<rect x="280.8" y="217.5" fill="#F0F0F0" width="2.5" height="2.5"/>
			<rect x="280.8" y="221.7" fill="#F0F0F0" width="2.5" height="2.5"/>
			<rect x="280.8" y="225.9" fill="#F0F0F0" width="2.5" height="2.5"/>
			<rect x="280.8" y="230" fill="#F0F0F0" width="2.5" height="2.5"/>
			<rect x="280.8" y="234.2" fill="#F0F0F0" width="2.5" height="2.5"/>
			<rect x="280.8" y="238.4" fill="#F0F0F0" width="2.5" height="2.5"/>
			<rect x="276.8" y="196.6" fill="#F0F0F0" width="2.5" height="2.5"/>
			<rect x="276.8" y="200.8" fill="#F0F0F0" width="2.5" height="2.5"/>
			<rect x="276.8" y="205" fill="#F0F0F0" width="2.5" height="2.5"/>
			<rect x="276.8" y="209.1" fill="#F0F0F0" width="2.5" height="2.5"/>
			<rect x="276.8" y="213.3" fill="#F0F0F0" width="2.5" height="2.5"/>
			<rect x="276.8" y="217.5" fill="#F0F0F0" width="2.5" height="2.5"/>
			<rect x="276.8" y="221.7" fill="#F0F0F0" width="2.5" height="2.5"/>
			<rect x="276.8" y="225.9" fill="#F0F0F0" width="2.5" height="2.5"/>
			<rect x="276.8" y="230" fill="#F0F0F0" width="2.5" height="2.5"/>
			<rect x="276.8" y="234.2" fill="#F0F0F0" width="2.5" height="2.5"/>
			<rect x="276.8" y="238.4" fill="#F0F0F0" width="2.5" height="2.5"/>
			<rect x="276.8" y="242.6" fill="#F0F0F0" width="2.5" height="2.5"/>
			<rect x="276.8" y="255.1" fill="#F0F0F0" width="2.5" height="2.5"/>
			<rect x="276.8" y="259.3" fill="#F0F0F0" width="2.5" height="2.5"/>
			<rect x="272.8" y="196.6" fill="#F0F0F0" width="2.5" height="2.5"/>
			<rect x="272.8" y="200.8" fill="#F0F0F0" width="2.5" height="2.5"/>
			<rect x="272.8" y="205" fill="#F0F0F0" width="2.5" height="2.5"/>
			<rect x="272.8" y="217.5" fill="#F0F0F0" width="2.5" height="2.5"/>
			<rect x="272.8" y="221.7" fill="#F0F0F0" width="2.5" height="2.5"/>
			<rect x="272.8" y="225.9" fill="#F0F0F0" width="2.5" height="2.5"/>
			<rect x="272.8" y="230" fill="#F0F0F0" width="2.5" height="2.5"/>
			<rect x="272.8" y="234.2" fill="#F0F0F0" width="2.5" height="2.5"/>
			<rect x="272.8" y="238.4" fill="#F0F0F0" width="2.5" height="2.5"/>
			<rect x="272.8" y="242.6" fill="#F0F0F0" width="2.5" height="2.5"/>
			<rect x="272.8" y="255.1" fill="#F0F0F0" width="2.5" height="2.5"/>
			<rect x="272.8" y="259.3" fill="#F0F0F0" width="2.5" height="2.5"/>
			<rect x="272.8" y="263.5" fill="#F0F0F0" width="2.5" height="2.5"/>
			<rect x="231.3" y="171.5" fill="#F0F0F0" width="2.5" height="2.5"/>
			<rect x="231.3" y="175.7" fill="#F0F0F0" width="2.5" height="2.5"/>
			<rect x="231.3" y="179.9" fill="#F0F0F0" width="2.5" height="2.5"/>
			<rect x="231.3" y="184.1" fill="#F0F0F0" width="2.5" height="2.5"/>
			<rect x="231.3" y="188.2" fill="#F0F0F0" width="2.5" height="2.5"/>
			<rect x="231.3" y="192.4" fill="#F0F0F0" width="2.5" height="2.5"/>
			<rect x="231.3" y="196.6" fill="#F0F0F0" width="2.5" height="2.5"/>
			<rect x="231.3" y="200.8" fill="#F0F0F0" width="2.5" height="2.5"/>
			<rect x="231.3" y="205" fill="#F0F0F0" width="2.5" height="2.5"/>
			<rect x="231.3" y="209.1" fill="#F0F0F0" width="2.5" height="2.5"/>
			<rect x="231.3" y="213.3" fill="#F0F0F0" width="2.5" height="2.5"/>
			<rect x="231.3" y="217.5" fill="#F0F0F0" width="2.5" height="2.5"/>
			<rect x="231.3" y="221.7" fill="#F0F0F0" width="2.5" height="2.5"/>
			<rect x="231.3" y="225.9" fill="#F0F0F0" width="2.5" height="2.5"/>
			<rect x="231.3" y="230" fill="#F0F0F0" width="2.5" height="2.5"/>
			<rect x="231.3" y="234.2" fill="#F0F0F0" width="2.5" height="2.5"/>
			<rect x="231.3" y="238.4" fill="#F0F0F0" width="2.5" height="2.5"/>
			<rect x="231.3" y="242.6" fill="#F0F0F0" width="2.5" height="2.5"/>
			<rect x="231.3" y="246.7" fill="#F0F0F0" width="2.5" height="2.5"/>
			<rect x="231.3" y="250.9" fill="#F0F0F0" width="2.5" height="2.5"/>
			<rect x="231.3" y="255.1" fill="#F0F0F0" width="2.5" height="2.5"/>
			<rect x="231.3" y="259.3" fill="#F0F0F0" width="2.5" height="2.5"/>
			<rect x="231.3" y="263.5" fill="#F0F0F0" width="2.5" height="2.5"/>
			<rect x="227.4" y="171.5" fill="#F0F0F0" width="2.5" height="2.5"/>
			<rect x="227.4" y="175.7" fill="#F0F0F0" width="2.5" height="2.5"/>
			<rect x="227.4" y="179.9" fill="#F0F0F0" width="2.5" height="2.5"/>
			<rect x="227.4" y="184.1" fill="#F0F0F0" width="2.5" height="2.5"/>
			<rect x="227.4" y="188.2" fill="#F0F0F0" width="2.5" height="2.5"/>
			<rect x="227.4" y="192.4" fill="#F0F0F0" width="2.5" height="2.5"/>
			<rect x="227.4" y="196.6" fill="#F0F0F0" width="2.5" height="2.5"/>
			<rect x="227.4" y="200.8" fill="#F0F0F0" width="2.5" height="2.5"/>
			<rect x="227.4" y="205" fill="#F0F0F0" width="2.5" height="2.5"/>
			<rect x="227.4" y="209.1" fill="#F0F0F0" width="2.5" height="2.5"/>
			<rect x="227.4" y="213.3" fill="#F0F0F0" width="2.5" height="2.5"/>
			<rect x="227.4" y="217.5" fill="#F0F0F0" width="2.5" height="2.5"/>
			<rect x="227.4" y="221.7" fill="#F0F0F0" width="2.5" height="2.5"/>
			<rect x="227.4" y="225.9" fill="#F0F0F0" width="2.5" height="2.5"/>
			<rect x="227.4" y="230" fill="#F0F0F0" width="2.5" height="2.5"/>
			<rect x="227.4" y="234.2" fill="#F0F0F0" width="2.5" height="2.5"/>
			<rect x="227.4" y="238.4" fill="#F0F0F0" width="2.5" height="2.5"/>
			<rect x="227.4" y="242.6" fill="#F0F0F0" width="2.5" height="2.5"/>
			<rect x="227.4" y="246.7" fill="#F0F0F0" width="2.5" height="2.5"/>
			<rect x="223.4" y="171.5" fill="#F0F0F0" width="2.5" height="2.5"/>
			<rect x="223.4" y="175.7" fill="#F0F0F0" width="2.5" height="2.5"/>
			<rect x="223.4" y="179.9" fill="#F0F0F0" width="2.5" height="2.5"/>
			<rect x="223.4" y="184.1" fill="#F0F0F0" width="2.5" height="2.5"/>
			<rect x="223.4" y="188.2" fill="#F0F0F0" width="2.5" height="2.5"/>
			<rect x="223.4" y="192.4" fill="#F0F0F0" width="2.5" height="2.5"/>
			<rect x="223.4" y="196.6" fill="#F0F0F0" width="2.5" height="2.5"/>
			<rect x="223.4" y="200.8" fill="#F0F0F0" width="2.5" height="2.5"/>
			<rect x="223.4" y="205" fill="#F0F0F0" width="2.5" height="2.5"/>
			<rect x="223.4" y="209.1" fill="#F0F0F0" width="2.5" height="2.5"/>
			<rect x="223.4" y="213.3" fill="#F0F0F0" width="2.5" height="2.5"/>
			<rect x="223.4" y="217.5" fill="#F0F0F0" width="2.5" height="2.5"/>
			<rect x="223.4" y="221.7" fill="#F0F0F0" width="2.5" height="2.5"/>
			<rect x="223.4" y="225.9" fill="#F0F0F0" width="2.5" height="2.5"/>
			<rect x="223.4" y="230" fill="#F0F0F0" width="2.5" height="2.5"/>
			<rect x="223.4" y="234.2" fill="#F0F0F0" width="2.5" height="2.5"/>
			<rect x="223.4" y="238.4" fill="#F0F0F0" width="2.5" height="2.5"/>
			<rect x="223.4" y="242.6" fill="#F0F0F0" width="2.5" height="2.5"/>
			<rect x="223.4" y="246.7" fill="#F0F0F0" width="2.5" height="2.5"/>
			<rect x="219.5" y="171.5" fill="#F0F0F0" width="2.5" height="2.5"/>
			<rect x="219.5" y="175.7" fill="#F0F0F0" width="2.5" height="2.5"/>
			<rect x="219.5" y="179.9" fill="#F0F0F0" width="2.5" height="2.5"/>
			<rect x="219.5" y="184.1" fill="#F0F0F0" width="2.5" height="2.5"/>
			<rect x="219.5" y="188.2" fill="#F0F0F0" width="2.5" height="2.5"/>
			<rect x="219.5" y="192.4" fill="#F0F0F0" width="2.5" height="2.5"/>
			<rect x="219.5" y="196.6" fill="#F0F0F0" width="2.5" height="2.5"/>
			<rect x="219.5" y="200.8" fill="#F0F0F0" width="2.5" height="2.5"/>
			<rect x="219.5" y="205" fill="#F0F0F0" width="2.5" height="2.5"/>
			<rect x="219.5" y="209.1" fill="#F0F0F0" width="2.5" height="2.5"/>
			<rect x="219.5" y="213.3" fill="#F0F0F0" width="2.5" height="2.5"/>
			<rect x="219.5" y="217.5" fill="#F0F0F0" width="2.5" height="2.5"/>
			<rect x="219.5" y="221.7" fill="#F0F0F0" width="2.5" height="2.5"/>
			<rect x="219.5" y="225.9" fill="#F0F0F0" width="2.5" height="2.5"/>
			<rect x="219.5" y="230" fill="#F0F0F0" width="2.5" height="2.5"/>
			<rect x="215.5" y="171.5" fill="#F0F0F0" width="2.5" height="2.5"/>
			<rect x="215.5" y="175.7" fill="#F0F0F0" width="2.5" height="2.5"/>
			<rect x="215.5" y="179.9" fill="#F0F0F0" width="2.5" height="2.5"/>
			<rect x="215.5" y="184.1" fill="#F0F0F0" width="2.5" height="2.5"/>
			<rect x="215.5" y="188.2" fill="#F0F0F0" width="2.5" height="2.5"/>
			<rect x="215.5" y="192.4" fill="#F0F0F0" width="2.5" height="2.5"/>
			<rect x="215.5" y="196.6" fill="#F0F0F0" width="2.5" height="2.5"/>
			<rect x="215.5" y="200.8" fill="#F0F0F0" width="2.5" height="2.5"/>
			<rect x="215.5" y="205" fill="#F0F0F0" width="2.5" height="2.5"/>
			<rect x="215.5" y="209.1" fill="#F0F0F0" width="2.5" height="2.5"/>
			<rect x="215.5" y="213.3" fill="#F0F0F0" width="2.5" height="2.5"/>
			<rect x="215.5" y="217.5" fill="#F0F0F0" width="2.5" height="2.5"/>
			<rect x="215.5" y="221.7" fill="#F0F0F0" width="2.5" height="2.5"/>
			<rect x="211.6" y="171.5" fill="#F0F0F0" width="2.5" height="2.5"/>
			<rect x="211.6" y="175.7" fill="#F0F0F0" width="2.5" height="2.5"/>
			<rect x="211.6" y="179.9" fill="#F0F0F0" width="2.5" height="2.5"/>
			<rect x="211.6" y="184.1" fill="#F0F0F0" width="2.5" height="2.5"/>
			<rect x="211.6" y="188.2" fill="#F0F0F0" width="2.5" height="2.5"/>
			<rect x="211.6" y="192.4" fill="#F0F0F0" width="2.5" height="2.5"/>
			<rect x="211.6" y="196.6" fill="#F0F0F0" width="2.5" height="2.5"/>
			<rect x="211.6" y="200.8" fill="#F0F0F0" width="2.5" height="2.5"/>
			<rect x="211.6" y="205" fill="#F0F0F0" width="2.5" height="2.5"/>
			<rect x="211.6" y="209.1" fill="#F0F0F0" width="2.5" height="2.5"/>
			<rect x="211.6" y="213.3" fill="#F0F0F0" width="2.5" height="2.5"/>
			<rect x="211.6" y="217.5" fill="#F0F0F0" width="2.5" height="2.5"/>
			<rect x="442.6" y="170.3" fill="#F0F0F0" width="2.5" height="2.5"/>
			<rect x="442.6" y="174.5" fill="#F0F0F0" width="2.5" height="2.5"/>
			<rect x="442.6" y="178.6" fill="#F0F0F0" width="2.5" height="2.5"/>
			<rect x="442.6" y="182.8" fill="#F0F0F0" width="2.5" height="2.5"/>
			<rect x="442.6" y="187" fill="#F0F0F0" width="2.5" height="2.5"/>
			<rect x="442.6" y="191.2" fill="#F0F0F0" width="2.5" height="2.5"/>
			<rect x="442.6" y="195.4" fill="#F0F0F0" width="2.5" height="2.5"/>
			<rect x="442.6" y="199.5" fill="#F0F0F0" width="2.5" height="2.5"/>
			<rect x="442.6" y="203.7" fill="#F0F0F0" width="2.5" height="2.5"/>
			<rect x="442.6" y="207.9" fill="#F0F0F0" width="2.5" height="2.5"/>
			<rect x="442.6" y="212.1" fill="#F0F0F0" width="2.5" height="2.5"/>
			<rect x="442.6" y="216.2" fill="#F0F0F0" width="2.5" height="2.5"/>
			<rect x="442.6" y="220.4" fill="#F0F0F0" width="2.5" height="2.5"/>
			<rect x="442.6" y="224.6" fill="#F0F0F0" width="2.5" height="2.5"/>
			<rect x="442.6" y="228.8" fill="#F0F0F0" width="2.5" height="2.5"/>
			<rect x="442.6" y="233" fill="#F0F0F0" width="2.5" height="2.5"/>
			<rect x="442.6" y="237.1" fill="#F0F0F0" width="2.5" height="2.5"/>
			<rect x="442.6" y="245.5" fill="#F0F0F0" width="2.5" height="2.5"/>
			<rect x="442.6" y="249.7" fill="#F0F0F0" width="2.5" height="2.5"/>
			<rect x="442.6" y="253.9" fill="#F0F0F0" width="2.5" height="2.5"/>
			<rect x="442.6" y="258" fill="#F0F0F0" width="2.5" height="2.5"/>
			<rect x="442.6" y="262.2" fill="#F0F0F0" width="2.5" height="2.5"/>
			<rect x="438.7" y="170.3" fill="#F0F0F0" width="2.5" height="2.5"/>
			<rect x="438.7" y="174.5" fill="#F0F0F0" width="2.5" height="2.5"/>
			<rect x="438.7" y="178.6" fill="#F0F0F0" width="2.5" height="2.5"/>
			<rect x="438.7" y="182.8" fill="#F0F0F0" width="2.5" height="2.5"/>
			<rect x="438.7" y="187" fill="#F0F0F0" width="2.5" height="2.5"/>
			<rect x="438.7" y="191.2" fill="#F0F0F0" width="2.5" height="2.5"/>
			<rect x="438.7" y="195.4" fill="#F0F0F0" width="2.5" height="2.5"/>
			<rect x="438.7" y="199.5" fill="#F0F0F0" width="2.5" height="2.5"/>
			<rect x="438.7" y="203.7" fill="#F0F0F0" width="2.5" height="2.5"/>
			<rect x="438.7" y="207.9" fill="#F0F0F0" width="2.5" height="2.5"/>
			<rect x="438.7" y="212.1" fill="#F0F0F0" width="2.5" height="2.5"/>
			<rect x="438.7" y="216.2" fill="#F0F0F0" width="2.5" height="2.5"/>
			<rect x="438.7" y="220.4" fill="#F0F0F0" width="2.5" height="2.5"/>
			<rect x="438.7" y="224.6" fill="#F0F0F0" width="2.5" height="2.5"/>
			<rect x="438.7" y="228.8" fill="#F0F0F0" width="2.5" height="2.5"/>
			<rect x="438.7" y="233" fill="#F0F0F0" width="2.5" height="2.5"/>
			<rect x="438.7" y="258" fill="#F0F0F0" width="2.5" height="2.5"/>
			<rect x="438.7" y="262.2" fill="#F0F0F0" width="2.5" height="2.5"/>
			<rect x="434.7" y="170.3" fill="#F0F0F0" width="2.5" height="2.5"/>
			<rect x="434.7" y="174.5" fill="#F0F0F0" width="2.5" height="2.5"/>
			<rect x="434.7" y="178.6" fill="#F0F0F0" width="2.5" height="2.5"/>
			<rect x="434.7" y="182.8" fill="#F0F0F0" width="2.5" height="2.5"/>
			<rect x="434.7" y="187" fill="#F0F0F0" width="2.5" height="2.5"/>
			<rect x="434.7" y="191.2" fill="#F0F0F0" width="2.5" height="2.5"/>
			<rect x="434.7" y="195.4" fill="#F0F0F0" width="2.5" height="2.5"/>
			<rect x="434.7" y="199.5" fill="#F0F0F0" width="2.5" height="2.5"/>
			<rect x="434.7" y="203.7" fill="#F0F0F0" width="2.5" height="2.5"/>
			<rect x="434.7" y="207.9" fill="#F0F0F0" width="2.5" height="2.5"/>
			<rect x="434.7" y="212.1" fill="#F0F0F0" width="2.5" height="2.5"/>
			<rect x="434.7" y="216.2" fill="#F0F0F0" width="2.5" height="2.5"/>
			<rect x="434.7" y="220.4" fill="#F0F0F0" width="2.5" height="2.5"/>
			<rect x="434.7" y="224.6" fill="#F0F0F0" width="2.5" height="2.5"/>
			<rect x="434.7" y="228.8" fill="#F0F0F0" width="2.5" height="2.5"/>
			<rect x="434.7" y="233" fill="#F0F0F0" width="2.5" height="2.5"/>
			<rect x="434.7" y="241.3" fill="#F0F0F0" width="2.5" height="2.5"/>
			<rect x="434.7" y="245.5" fill="#F0F0F0" width="2.5" height="2.5"/>
			<rect x="434.7" y="249.7" fill="#F0F0F0" width="2.5" height="2.5"/>
			<rect x="434.7" y="253.9" fill="#F0F0F0" width="2.5" height="2.5"/>
			<rect x="434.7" y="262.2" fill="#F0F0F0" width="2.5" height="2.5"/>
			<rect x="365.7" y="199.5" fill="#F0F0F0" width="2.5" height="2.5"/>
			<rect x="365.7" y="203.7" fill="#F0F0F0" width="2.5" height="2.5"/>
			<rect x="365.7" y="207.9" fill="#F0F0F0" width="2.5" height="2.5"/>
			<rect x="365.7" y="212.1" fill="#F0F0F0" width="2.5" height="2.5"/>
			<rect x="365.7" y="216.2" fill="#F0F0F0" width="2.5" height="2.5"/>
			<rect x="365.7" y="220.4" fill="#F0F0F0" width="2.5" height="2.5"/>
			<rect x="365.7" y="224.6" fill="#F0F0F0" width="2.5" height="2.5"/>
			<rect x="365.7" y="228.8" fill="#F0F0F0" width="2.5" height="2.5"/>
			<rect x="365.7" y="233" fill="#F0F0F0" width="2.5" height="2.5"/>
			<rect x="365.7" y="237.1" fill="#F0F0F0" width="2.5" height="2.5"/>
			<rect x="365.7" y="241.3" fill="#F0F0F0" width="2.5" height="2.5"/>
			<rect x="365.7" y="245.5" fill="#F0F0F0" width="2.5" height="2.5"/>
			<rect x="365.7" y="249.7" fill="#F0F0F0" width="2.5" height="2.5"/>
			<rect x="365.7" y="258" fill="#F0F0F0" width="2.5" height="2.5"/>
			<rect x="365.7" y="262.2" fill="#F0F0F0" width="2.5" height="2.5"/>
			<rect x="365.7" y="266.4" fill="#F0F0F0" width="2.5" height="2.5"/>
			<rect x="365.7" y="270.6" fill="#F0F0F0" width="2.5" height="2.5"/>
			<rect x="365.7" y="278.9" fill="#F0F0F0" width="2.5" height="2.5"/>
			<rect x="365.7" y="283.1" fill="#F0F0F0" width="2.5" height="2.5"/>
			<rect x="365.7" y="287.3" fill="#F0F0F0" width="2.5" height="2.5"/>
			<rect x="361.7" y="199.5" fill="#F0F0F0" width="2.5" height="2.5"/>
			<rect x="361.7" y="203.7" fill="#F0F0F0" width="2.5" height="2.5"/>
			<rect x="361.7" y="207.9" fill="#F0F0F0" width="2.5" height="2.5"/>
			<rect x="361.7" y="212.1" fill="#F0F0F0" width="2.5" height="2.5"/>
			<rect x="361.7" y="216.2" fill="#F0F0F0" width="2.5" height="2.5"/>
			<rect x="361.7" y="220.4" fill="#F0F0F0" width="2.5" height="2.5"/>
			<rect x="361.7" y="224.6" fill="#F0F0F0" width="2.5" height="2.5"/>
			<rect x="361.7" y="228.8" fill="#F0F0F0" width="2.5" height="2.5"/>
			<rect x="361.7" y="233" fill="#F0F0F0" width="2.5" height="2.5"/>
			<rect x="361.7" y="237.1" fill="#F0F0F0" width="2.5" height="2.5"/>
			<rect x="361.7" y="241.3" fill="#F0F0F0" width="2.5" height="2.5"/>
			<rect x="361.7" y="245.5" fill="#F0F0F0" width="2.5" height="2.5"/>
			<rect x="361.7" y="249.7" fill="#F0F0F0" width="2.5" height="2.5"/>
			<rect x="361.7" y="262.2" fill="#F0F0F0" width="2.5" height="2.5"/>
			<rect x="361.7" y="266.4" fill="#F0F0F0" width="2.5" height="2.5"/>
			<rect x="361.7" y="274.8" fill="#F0F0F0" width="2.5" height="2.5"/>
			<rect x="361.7" y="278.9" fill="#F0F0F0" width="2.5" height="2.5"/>
			<rect x="361.7" y="283.1" fill="#F0F0F0" width="2.5" height="2.5"/>
			<rect x="361.7" y="287.3" fill="#F0F0F0" width="2.5" height="2.5"/>
			<rect x="357.7" y="199.5" fill="#F0F0F0" width="2.5" height="2.5"/>
			<rect x="357.7" y="203.7" fill="#F0F0F0" width="2.5" height="2.5"/>
			<rect x="357.7" y="207.9" fill="#F0F0F0" width="2.5" height="2.5"/>
			<rect x="357.7" y="212.1" fill="#F0F0F0" width="2.5" height="2.5"/>
			<rect x="357.7" y="216.2" fill="#F0F0F0" width="2.5" height="2.5"/>
			<rect x="357.7" y="220.4" fill="#F0F0F0" width="2.5" height="2.5"/>
			<rect x="357.7" y="224.6" fill="#F0F0F0" width="2.5" height="2.5"/>
			<rect x="357.7" y="228.8" fill="#F0F0F0" width="2.5" height="2.5"/>
			<rect x="357.7" y="233" fill="#F0F0F0" width="2.5" height="2.5"/>
			<rect x="357.7" y="237.1" fill="#F0F0F0" width="2.5" height="2.5"/>
			<rect x="357.7" y="241.3" fill="#F0F0F0" width="2.5" height="2.5"/>
			<rect x="357.7" y="245.5" fill="#F0F0F0" width="2.5" height="2.5"/>
			<rect x="357.7" y="249.7" fill="#F0F0F0" width="2.5" height="2.5"/>
			<rect x="357.7" y="253.9" fill="#F0F0F0" width="2.5" height="2.5"/>
			<rect x="357.7" y="262.2" fill="#F0F0F0" width="2.5" height="2.5"/>
			<rect x="357.7" y="270.6" fill="#F0F0F0" width="2.5" height="2.5"/>
			<rect x="357.7" y="274.8" fill="#F0F0F0" width="2.5" height="2.5"/>
			<rect x="357.7" y="278.9" fill="#F0F0F0" width="2.5" height="2.5"/>
			<rect x="357.7" y="283.1" fill="#F0F0F0" width="2.5" height="2.5"/>
			<rect x="357.7" y="287.3" fill="#F0F0F0" width="2.5" height="2.5"/>
			<rect x="381.8" y="223.4" fill="#F0F0F0" width="2.5" height="2.5"/>
			<rect x="381.8" y="227.5" fill="#F0F0F0" width="2.5" height="2.5"/>
			<rect x="381.8" y="231.7" fill="#F0F0F0" width="2.5" height="2.5"/>
			<rect x="381.8" y="235.9" fill="#F0F0F0" width="2.5" height="2.5"/>
			<rect x="381.8" y="240.1" fill="#F0F0F0" width="2.5" height="2.5"/>
			<rect x="381.8" y="244.3" fill="#F0F0F0" width="2.5" height="2.5"/>
			<rect x="381.8" y="256.8" fill="#F0F0F0" width="2.5" height="2.5"/>
			<rect x="381.8" y="261" fill="#F0F0F0" width="2.5" height="2.5"/>
			<rect x="381.8" y="265.1" fill="#F0F0F0" width="2.5" height="2.5"/>
			<rect x="381.8" y="269.3" fill="#F0F0F0" width="2.5" height="2.5"/>
			<rect x="381.8" y="273.5" fill="#F0F0F0" width="2.5" height="2.5"/>
			<rect x="381.8" y="277.7" fill="#F0F0F0" width="2.5" height="2.5"/>
			<rect x="381.8" y="281.9" fill="#F0F0F0" width="2.5" height="2.5"/>
			<rect x="377.8" y="223.4" fill="#F0F0F0" width="2.5" height="2.5"/>
			<rect x="377.8" y="227.5" fill="#F0F0F0" width="2.5" height="2.5"/>
			<rect x="377.8" y="231.7" fill="#F0F0F0" width="2.5" height="2.5"/>
			<rect x="377.8" y="235.9" fill="#F0F0F0" width="2.5" height="2.5"/>
			<rect x="377.8" y="240.1" fill="#F0F0F0" width="2.5" height="2.5"/>
			<rect x="377.8" y="244.3" fill="#F0F0F0" width="2.5" height="2.5"/>
			<rect x="377.8" y="256.8" fill="#F0F0F0" width="2.5" height="2.5"/>
			<rect x="377.8" y="261" fill="#F0F0F0" width="2.5" height="2.5"/>
			<rect x="377.8" y="265.1" fill="#F0F0F0" width="2.5" height="2.5"/>
			<rect x="377.8" y="269.3" fill="#F0F0F0" width="2.5" height="2.5"/>
			<rect x="377.8" y="273.5" fill="#F0F0F0" width="2.5" height="2.5"/>
			<rect x="377.8" y="277.7" fill="#F0F0F0" width="2.5" height="2.5"/>
			<rect x="377.8" y="286" fill="#F0F0F0" width="2.5" height="2.5"/>
			<rect x="246.3" y="205" fill="#F0F0F0" width="2.5" height="2.5"/>
			<rect x="246.3" y="209.1" fill="#F0F0F0" width="2.5" height="2.5"/>
			<rect x="246.3" y="213.3" fill="#F0F0F0" width="2.5" height="2.5"/>
			<rect x="246.3" y="217.5" fill="#F0F0F0" width="2.5" height="2.5"/>
			<rect x="246.3" y="221.7" fill="#F0F0F0" width="2.5" height="2.5"/>
			<rect x="246.3" y="225.9" fill="#F0F0F0" width="2.5" height="2.5"/>
			<rect x="246.3" y="230" fill="#F0F0F0" width="2.5" height="2.5"/>
			<rect x="246.3" y="234.2" fill="#F0F0F0" width="2.5" height="2.5"/>
			<rect x="246.3" y="238.4" fill="#F0F0F0" width="2.5" height="2.5"/>
			<rect x="246.3" y="242.6" fill="#F0F0F0" width="2.5" height="2.5"/>
			<rect x="246.3" y="246.7" fill="#F0F0F0" width="2.5" height="2.5"/>
			<rect x="246.3" y="255.1" fill="#F0F0F0" width="2.5" height="2.5"/>
			<rect x="246.3" y="259.3" fill="#F0F0F0" width="2.5" height="2.5"/>
			<rect x="246.3" y="263.5" fill="#F0F0F0" width="2.5" height="2.5"/>
			<rect x="246.3" y="267.6" fill="#F0F0F0" width="2.5" height="2.5"/>
			<rect x="246.3" y="271.8" fill="#F0F0F0" width="2.5" height="2.5"/>
			<rect x="246.3" y="276" fill="#F0F0F0" width="2.5" height="2.5"/>
			<rect x="246.3" y="280.2" fill="#F0F0F0" width="2.5" height="2.5"/>
			<rect x="246.3" y="284.4" fill="#F0F0F0" width="2.5" height="2.5"/>
			<rect x="242.3" y="205" fill="#F0F0F0" width="2.5" height="2.5"/>
			<rect x="242.3" y="209.1" fill="#F0F0F0" width="2.5" height="2.5"/>
			<rect x="242.3" y="213.3" fill="#F0F0F0" width="2.5" height="2.5"/>
			<rect x="242.3" y="217.5" fill="#F0F0F0" width="2.5" height="2.5"/>
			<rect x="242.3" y="221.7" fill="#F0F0F0" width="2.5" height="2.5"/>
			<rect x="242.3" y="225.9" fill="#F0F0F0" width="2.5" height="2.5"/>
			<rect x="242.3" y="230" fill="#F0F0F0" width="2.5" height="2.5"/>
			<rect x="242.3" y="234.2" fill="#F0F0F0" width="2.5" height="2.5"/>
			<rect x="242.3" y="238.4" fill="#F0F0F0" width="2.5" height="2.5"/>
			<rect x="242.3" y="242.6" fill="#F0F0F0" width="2.5" height="2.5"/>
			<rect x="242.3" y="246.7" fill="#F0F0F0" width="2.5" height="2.5"/>
			<rect x="242.3" y="250.9" fill="#F0F0F0" width="2.5" height="2.5"/>
			<rect x="242.3" y="255.1" fill="#F0F0F0" width="2.5" height="2.5"/>
			<rect x="242.3" y="259.3" fill="#F0F0F0" width="2.5" height="2.5"/>
			<rect x="242.3" y="263.5" fill="#F0F0F0" width="2.5" height="2.5"/>
			<rect x="242.3" y="267.6" fill="#F0F0F0" width="2.5" height="2.5"/>
			<rect x="242.3" y="271.8" fill="#F0F0F0" width="2.5" height="2.5"/>
			<rect x="242.3" y="276" fill="#F0F0F0" width="2.5" height="2.5"/>
			<rect x="242.3" y="280.2" fill="#F0F0F0" width="2.5" height="2.5"/>
			<rect x="242.3" y="284.4" fill="#F0F0F0" width="2.5" height="2.5"/>
			<rect x="265.8" y="221.2" fill="#F0F0F0" width="2.5" height="2.5"/>
			<rect x="265.8" y="225.4" fill="#F0F0F0" width="2.5" height="2.5"/>
			<rect x="265.8" y="229.6" fill="#F0F0F0" width="2.5" height="2.5"/>
			<rect x="265.8" y="233.8" fill="#F0F0F0" width="2.5" height="2.5"/>
			<rect x="265.8" y="237.9" fill="#F0F0F0" width="2.5" height="2.5"/>
			<rect x="265.8" y="242.1" fill="#F0F0F0" width="2.5" height="2.5"/>
			<rect x="265.8" y="246.3" fill="#F0F0F0" width="2.5" height="2.5"/>
			<rect x="265.8" y="250.5" fill="#F0F0F0" width="2.5" height="2.5"/>
			<rect x="265.8" y="254.7" fill="#F0F0F0" width="2.5" height="2.5"/>
			<rect x="265.8" y="258.8" fill="#F0F0F0" width="2.5" height="2.5"/>
			<rect x="261.8" y="221.2" fill="#F0F0F0" width="2.5" height="2.5"/>
			<rect x="261.8" y="225.4" fill="#F0F0F0" width="2.5" height="2.5"/>
			<rect x="261.8" y="229.6" fill="#F0F0F0" width="2.5" height="2.5"/>
			<rect x="261.8" y="233.8" fill="#F0F0F0" width="2.5" height="2.5"/>
			<rect x="261.8" y="237.9" fill="#F0F0F0" width="2.5" height="2.5"/>
			<rect x="261.8" y="242.1" fill="#F0F0F0" width="2.5" height="2.5"/>
			<rect x="261.8" y="246.3" fill="#F0F0F0" width="2.5" height="2.5"/>
			<rect x="261.8" y="250.5" fill="#F0F0F0" width="2.5" height="2.5"/>
			<rect x="261.8" y="254.7" fill="#F0F0F0" width="2.5" height="2.5"/>
		</g>
	</g>
	<g>
		<rect x="283.7" y="62.6" fill="#E0E0E0" width="4.2" height="233.1"/>
		<rect x="362.4" y="62.6" fill="#E0E0E0" width="4.2" height="233.1"/>
		<rect x="441.1" y="62.6" fill="#E0E0E0" width="4.2" height="233.1"/>
	</g>
</g>
<g>
	<path fill="#F0F0F0" d="M178,327.3h-34.6v-49.8c0-2.4,2-4.4,4.4-4.4h25.8c2.4,0,4.4,2,4.4,4.4L178,327.3L178,327.3z"/>
	<rect x="143.4" y="280.4" fill="#E6E6E6" width="34.6" height="3.9"/>
	<path fill="#E0E0E0" d="M171.7,320.7h-8.6c-1.3,0-2.4,1.1-2.4,2.4v4.2h13.4v-4.2C174.1,321.8,173,320.7,171.7,320.7z"/>
	<path fill="#E6E6E6" d="M174.1,327.3h-9.6c-0.8,0-1.5-0.7-1.5-1.5l0,0c0-0.8,0.7-1.5,1.5-1.5h9.6c0.8,0,1.5,0.7,1.5,1.5l0,0
		C175.7,326.6,175,327.3,174.1,327.3z"/>
</g>
<g id="Backgorund_Simple" display="none">
	<g display="inline">
		<path fill="#407BFF" d="M308.6,37.6c8-2.8,16.5-4,24.7-3.5c41.6,2.6,67.7,39.1,75.4,77.1c11.1,55.2-17,111.8-56.5,149.1
			c-1.3,1.2-2.6,2.4-3.9,3.6c-41.1,36.6-96.1,55.3-150.6,56.8c-34.3,1-75-10.6-97.6-37.8c-23.7-28.4-18.4-92.7,26.7-95.7
			c18.4-1.2,35.5,5.4,53.2,9.1c24.5,5.1,51.2,0.2,71.3-15.1c40-30.3,4-85.7,28.5-122C286.4,49.1,297,41.7,308.6,37.6z"/>
		<path opacity="0.9" fill="#FFFFFF" enable-background="new    " d="M308.6,37.6c8-2.8,16.5-4,24.7-3.5
			c41.6,2.6,67.7,39.1,75.4,77.1c11.1,55.2-17,111.8-56.5,149.1c-1.3,1.2-2.6,2.4-3.9,3.6c-41.1,36.6-96.1,55.3-150.6,56.8
			c-34.3,1-75-10.6-97.6-37.8c-23.7-28.4-18.4-92.7,26.7-95.7c18.4-1.2,35.5,5.4,53.2,9.1c24.5,5.1,51.2,0.2,71.3-15.1
			c40-30.3,4-85.7,28.5-122C286.4,49.1,297,41.7,308.6,37.6z"/>
	</g>
</g>
<g id="Shadow_1_">
	<ellipse id="_x3C_Path_x3E__359_" fill="#F5F5F5" cx="250" cy="361.2" rx="193.9" ry="11.3"/>
</g>
<g id="Plant">
	<g>
		<g>
			<path fill="#28A8B2" d="M410.4,329.7c0.2-1,3.7-25.2-3.4-33.5c-1.6-1.8-3.5-2.8-5.8-2.9c-14.2-0.3-16.1,11-16.1,11.2l1.7,0.3
				c0.1-0.4,1.7-10,14.4-9.7c1.8,0,3.3,0.8,4.6,2.3c6.5,7.8,3,31.9,3,32.2L410.4,329.7z"/>
		</g>
		<g>
			<path fill="#28A8B2" d="M411.3,328.6l1.7-0.1c0-0.2-0.6-22.2,10.3-26.8c10.6-4.5,15.4,4.7,15.6,5.1l1.5-0.8
				c-0.1-0.1-5.7-11-17.8-5.9C410.7,305.2,411.3,327.7,411.3,328.6z"/>
		</g>
		<g>
			<path fill="#28A8B2" d="M411.3,330.3c0-0.4,0.1-35.2,6.9-45.4c6.5-9.8,17-5.2,17.5-5l0.7-1.5c-0.1-0.1-12.3-5.4-19.6,5.6
				c-7.1,10.6-7.2,44.9-7.2,46.3H411.3z"/>
		</g>
		<path id="leaf-111" fill="#28A8B2" d="M399.2,294.2c0,0,6.2,2.3,4.3,7.7s-21.4,14.2-21.4,14.2s-8.2-7.5-0.7-19.7
			C389.1,284.2,399.1,290.3,399.2,294.2z"/>
		<path id="leaf-122" fill="#28A8B2" d="M418.5,283.1c0,0-4.4-0.5-4-3.1c0.4-2.7,17.1-9.5,26.9,1.6c0,0-6.3,10.8-15.4,11
			C416.8,292.7,418.5,283.1,418.5,283.1z"/>
		<path id="leaf-133" fill="#28A8B2" d="M423,301c0,0-3-2.4,0.2-3.6c3.3-1.2,19.3-0.9,19.5,15c0,0-18.7,3.1-21-2.9S423,301,423,301z
			"/>
		<path id="leaf-11" opacity="0.2" enable-background="new    " d="M399.2,294.2c0,0,6.2,2.3,4.3,7.7s-21.4,14.2-21.4,14.2
			s-8.2-7.5-0.7-19.7C389.1,284.2,399.1,290.3,399.2,294.2z"/>
		<path id="leaf-12" opacity="0.2" enable-background="new    " d="M418.5,283.1c0,0-4.4-0.5-4-3.1c0.4-2.7,17.1-9.5,26.9,1.6
			c0,0-6.3,10.8-15.4,11C416.8,292.7,418.5,283.1,418.5,283.1z"/>
		<path id="leaf-13" opacity="0.2" enable-background="new    " d="M423,301c0,0-3-2.4,0.2-3.6c3.3-1.2,19.3-0.9,19.5,15
			c0,0-18.7,3.1-21-2.9S423,301,423,301z"/>
		<polygon fill="#28A8B2" points="395.9,362.1 424.9,362.1 428,330.3 392.8,330.3 		"/>
		<polygon opacity="0.5" fill="#FFFFFF" enable-background="new    " points="395.9,362.1 424.9,362.1 428,330.3 392.8,330.3 		"/>
		<rect x="391.3" y="326.9" fill="#28A8B2" width="38.3" height="7"/>
		<rect x="391.3" y="326.9" opacity="0.2" fill="#FFFFFF" enable-background="new    " width="38.3" height="7"/>
	</g>
</g>
<g id="Chair">
	<g>
		<path fill="#263238" d="M363.1,339.3l-28.8-2.8V296h-11.4v40.5l-28.9,2.8c-2.9,0.3-5.1,2.7-5.1,5.6v4.3h38.6h2.1h38.6v-4.3
			C368.2,342,366,339.6,363.1,339.3z"/>
		<path opacity="0.2" fill="#FFFFFF" enable-background="new    " d="M363.1,339.3l-28.8-2.8V296h-11.4v40.5l-28.9,2.8
			c-2.9,0.3-5.1,2.7-5.1,5.6v4.3h38.6h2.1h38.6v-4.3C368.2,342,366,339.6,363.1,339.3z"/>
		<circle fill="#263238" cx="292" cy="354.6" r="7.5"/>
		<circle fill="#263238" cx="365.1" cy="354.6" r="7.5"/>
		<path fill="#263238" d="M332.1,304.7H325c-2.3,0-4.1-1.9-4.1-4.1v-31.9h15.4v31.9C336.3,302.9,334.4,304.7,332.1,304.7z"/>
		<path opacity="0.3" fill="#FFFFFF" enable-background="new    " d="M332.1,304.7H325c-2.3,0-4.1-1.9-4.1-4.1v-31.9h15.4v31.9
			C336.3,302.9,334.4,304.7,332.1,304.7z"/>
		<path fill="#263238" d="M355.9,205.3c0,0,2.2,54-12.9,63.3h17.2c0,0,13.3-18.4,9.5-63.3H355.9z"/>
		<path opacity="0.3" fill="#FFFFFF" enable-background="new    " d="M355.9,205.3c0,0,2.2,54-12.9,63.3h17.2
			c0,0,13.3-18.4,9.5-63.3H355.9z"/>
		<path fill="#263238" d="M294.1,261.1H361c2.8,0,5,2.2,5,5v6.7h-76.9v-6.7C289.1,263.3,291.4,261.1,294.1,261.1z"/>
		<g>
			<path fill="#263238" d="M287.9,266.9h79.3c1.1,0,2,0.9,2,2v1.8c0,1.1-0.9,2-2,2h-79.3c-1.1,0-2-0.9-2-2v-1.8
				C285.9,267.8,286.8,266.9,287.9,266.9z"/>
			<path opacity="0.6" fill="#FFFFFF" enable-background="new    " d="M287.9,266.9h79.3c1.1,0,2,0.9,2,2v1.8c0,1.1-0.9,2-2,2h-79.3
				c-1.1,0-2-0.9-2-2v-1.8C285.9,267.8,286.8,266.9,287.9,266.9z"/>
		</g>
		<path fill="#263238" d="M374,216.3h-27.5c-8.1,0-14.6-6.5-14.6-14.6V191c0-8.1,6.5-14.6,14.6-14.6H374c8.1,0,14.6,6.5,14.6,14.6
			v10.8C388.5,209.8,382,216.3,374,216.3z"/>
	</g>
</g>
<g id="Character">
	<g>
		<path fill="#E4897B" d="M263.1,132.3l-5.5-14.5c0,0,2.4-2.2,0.7-4.4c-1.6-2.2-11.7-8.4-13.6-7.3c-1.8,1.1-5.9,5.2-3.7,7.5
			s12,6.1,12,6.1l4.9,19L263.1,132.3z"/>
		<g>
			<path fill="#28A8B2" d="M301.4,159.8c0,0-25-5.1-27.7-6.4c-2.7-1.2-12.8-30.7-12.8-30.7l-7.7,3.6c0,0,6.2,29.5,12.5,36.6
				c6.3,7,33.4,13,33.4,13L301.4,159.8z"/>
			<path opacity="0.2" enable-background="new    " d="M299.2,175.9c0,0-0.2,0-0.5-0.1c-1.4-0.3-5.6-1.3-10.7-2.8
				c-8.2-2.4-18.6-6-22.2-10.1c-6.3-7-12.5-36.6-12.5-36.6l7.7-3.6c0,0,10.1,29.4,12.8,30.7c2.7,1.2,27.7,6.4,27.7,6.4L299.2,175.9z
				"/>
			<polygon fill="#28A8B2" points="261.1,122.2 262.7,125.3 252.8,128.7 253.1,124.9 			"/>
		</g>
		<path opacity="0.2" enable-background="new    " d="M299.4,175.5c-1.4-0.2-5.7-0.9-10.9-2c3-5.1,11.6-7.7,11.6-7.7L299.4,175.5z"
			/>
		<path fill="#263238" d="M336.6,139.4c0,0,1.5,13.8-3.7,17.2c-5.1,3.4-30.3-0.6-33.2-6.1c-2.9-5.6,7.9-20.7,7.9-20.7L336.6,139.4z"
			/>
		<polygon fill="#E4897B" points="234.6,321.4 241.2,323 244.5,313.9 247.5,305.6 240,302.4 237.1,312.5 		"/>
		<polygon opacity="0.2" enable-background="new    " points="237.1,312.5 244.5,313.9 247.5,305.6 240,302.4 		"/>
		<g>
			<path fill="#37474F" d="M237.8,307.7l9.1,3.4c0,0,24.3-60.8,29.3-61s55.9,23.2,68.7,10.2c12.8-13-5.7-44.2-5.7-44.2
				s-30.7-4.4-33,2.5c-0.5,1.3-0.9,4-1.3,6.2c-0.4,2.1-0.6,3.9-0.6,3.9l0,0c-0.9-0.2-31.8-8.2-43.9,0
				C248.1,237,237.8,307.7,237.8,307.7z"/>
			<path opacity="0.6" fill="#FFFFFF" enable-background="new    " d="M237.8,307.7l9.1,3.4c0,0,24.3-60.8,29.3-61
				s55.9,23.2,68.7,10.2c12.8-13-5.7-44.2-5.7-44.2s-30.7-4.4-33,2.5c-0.5,1.3-0.9,4-1.3,6.2c-0.4,2.1-0.6,3.9-0.6,3.9l0,0
				c-0.9-0.2-31.8-8.2-43.9,0C248.1,237,237.8,307.7,237.8,307.7z"/>
		</g>
		<polygon fill="#E4897B" points="290.3,347.3 296.8,345.7 295.6,336.3 294.4,327.6 286.3,328.4 288.4,338.4 		"/>
		<polygon opacity="0.2" enable-background="new    " points="288.4,338.6 295.6,336.4 294.4,327.7 286.3,328.4 		"/>
		<polygon fill="#28A8B2" points="250.7,307.7 237.4,303.2 236.8,308.6 246.9,312.2 		"/>
		<g>
			<path fill="#37474F" d="M322.9,263.4c0,0-2.1,0-34.3-1.5c0,0,4.8,40.2,7.4,70.4l-9.6,1.6c0,0-23-64.5-22.8-74.8s12-13.2,12-13.2
				S298.6,259.2,322.9,263.4z"/>
			<path opacity="0.6" fill="#FFFFFF" enable-background="new    " d="M322.9,263.4c0,0-2.1,0-34.3-1.5c0,0,4.8,40.2,7.4,70.4
				l-9.6,1.6c0,0-23-64.5-22.8-74.8s12-13.2,12-13.2S298.6,259.2,322.9,263.4z"/>
			<path opacity="0.1" enable-background="new    " d="M322.9,263.4c0,0-2.1,0-34.3-1.5c0,0,4.8,40.2,7.4,70.4l-9.6,1.6
				c0,0-23-64.5-22.8-74.8s12-13.2,12-13.2S298.6,259.2,322.9,263.4z"/>
		</g>
		<polygon fill="#28A8B2" points="297.5,329.4 284.2,330.9 286.8,336.1 297.5,334.7 		"/>
		<path opacity="0.1" enable-background="new    " d="M304.3,228.7l18,3.7c0,0-9.9-5.5-17.4-7.6
			C304.6,226.9,304.3,228.7,304.3,228.7z"/>
		<g>
			<g>
				<polygon fill="#263238" points="338.5,211.2 339.2,216 306.2,218.5 305.4,212.9 				"/>
				<polygon opacity="0.2" enable-background="new    " points="338.5,211.2 339.2,216 306.2,218.5 305.4,212.9 				"/>
			</g>
			
				<rect x="327.6" y="210.9" transform="matrix(0.9948 -0.1023 0.1023 0.9948 -20.277 34.724)" fill="#407BFF" width="1.6" height="8.3"/>
			
				<rect x="313.3" y="212.6" transform="matrix(0.9979 -6.413572e-02 6.413572e-02 0.9979 -13.1585 20.767)" fill="#FFFFFF" width="7.2" height="5.5"/>
			
				<rect x="307.5" y="211.8" transform="matrix(0.9948 -0.1023 0.1023 0.9948 -20.4741 32.6724)" fill="#407BFF" width="1.6" height="8.3"/>
			
				<rect x="327.6" y="210.9" transform="matrix(0.9948 -0.1023 0.1023 0.9948 -20.277 34.724)" opacity="0.6" fill="#FFFFFF" enable-background="new    " width="1.6" height="8.3"/>
			
				<rect x="307.5" y="211.8" transform="matrix(0.9948 -0.1023 0.1023 0.9948 -20.4741 32.6724)" opacity="0.6" fill="#FFFFFF" enable-background="new    " width="1.6" height="8.3"/>
		</g>
		<path fill="#28A8B2" d="M300.8,159.3c0,0,8.4,2.6,19,2.1S343,166,343,166l-4.5,45.2l-33.1,1.7
			C305.4,212.9,294.2,175.2,300.8,159.3z"/>
		<path fill="#263238" d="M306.1,133.8c0,0,1.9-21.9,20.2-14c23,10,4.7,36.7-6.5,31.3S306.1,133.8,306.1,133.8z"/>
		<path opacity="0.2" enable-background="new    " d="M311.2,162.7l0.5,12.4l4.1-5.8c0,0-1.5,13.7-0.6,21.2c0,0,0.8-13.4,2.6-21.2
			l4.4,5.8l6.3-12.3C328.6,162.7,318.4,159.1,311.2,162.7z"/>
		<path fill="#E4897B" d="M316.9,165l9.5-2.7c-5.8-4-2.9-13-2.9-13l-9.4,3.3c0.5,1.6,0.8,2.9,1,4c1,5.9-1.7,6.3-1.7,6.3L316.9,165z"
			/>
		<path opacity="0.2" enable-background="new    " d="M314.1,152.6c0.5,1.6,0.8,2.9,1,4c4.5-1.8,8.4-7.3,8.4-7.3L314.1,152.6z"/>
		<g>
			<path fill="#E4897B" d="M320.3,124.4c-8.3-1.8-12,2-14.5,10.5c-3.1,10.5-2.4,18.7,8.5,18.7C329.1,153.6,334.1,127.5,320.3,124.4z
				"/>
			<path fill="#DE5753" d="M311.2,135.6c0,0-1.6,1.9-3.2,2.9c0,0,0.5,1.3,2,1.4L311.2,135.6z"/>
			<g>
				<path fill="#263238" d="M316.5,136.1c-0.2,0.7,0.1,1.3,0.5,1.4c0.5,0.1,1-0.3,1.1-1c0.2-0.7-0.1-1.3-0.5-1.4
					C317.2,134.9,316.7,135.4,316.5,136.1z"/>
				<path fill="#263238" d="M317.8,135.1l-1.3-0.9C316.5,134.2,316.9,135.6,317.8,135.1z"/>
			</g>
			<g>
				<path fill="#263238" d="M308.1,133.9c-0.2,0.7,0.1,1.3,0.5,1.4c0.5,0.1,1-0.3,1.1-1c0.2-0.7-0.1-1.3-0.5-1.4
					C308.7,132.7,308.2,133.2,308.1,133.9z"/>
				<path fill="#263238" d="M309.4,132.9L308,132C308,132,308.5,133.4,309.4,132.9z"/>
			</g>
			
				<path fill="none" stroke="#263238" stroke-width="0.7247" stroke-linecap="round" stroke-linejoin="round" stroke-miterlimit="10" d="
				M317.8,130.4c0,0,2.4,0.2,3.3,2.1"/>
			
				<path fill="none" stroke="#263238" stroke-width="0.7247" stroke-linecap="round" stroke-linejoin="round" stroke-miterlimit="10" d="
				M311.9,128.7c0,0-1.3-0.9-3.5,0"/>
			<path fill="#263238" d="M326.2,140.5c0,0-2.4-7.7-0.6-12.8c0,0-15-10.4-19.5,6.2c0,0,1.7-15.2,16.1-12.4s9.7,23.8,0.9,28.4
				C323.1,149.8,327.7,145.3,326.2,140.5z"/>
			<path fill="#E4897B" d="M324.5,141.9c0.4-1.3,2.2-3.3,4.7-2.5c2.5,0.9,2.6,6.4-4.1,6.3C324.1,145.7,323.8,144.7,324.5,141.9z"/>
			<g>
				<path fill="#263238" d="M308.6,143.1c0.3,1.1,0.4,3.1,0.4,3.1c0.2,0,0.4,0,0.5,0.1c2.5,0.2,3.7-0.5,4.3-1.4
					c0.3-0.5,0.5-1,0.5-1.4c0.1-0.5,0-0.9,0-0.9c-1.4,0.7-3.7,0.7-5,0.6C308.9,143.2,308.6,143.1,308.6,143.1z"/>
				<path fill="#FFFFFF" d="M309.4,143.2l0.2,0.9c2.3,0.2,4,0,4.8-0.6c0.1-0.5,0-0.9,0-0.9C313,143.3,310.6,143.3,309.4,143.2z"/>
				<path fill="#DE5753" d="M309.5,146.3c2.5,0.2,3.7-0.5,4.3-1.4c-0.8,0-1.9,0-2.8,0.3C310.3,145.5,309.9,145.9,309.5,146.3z"/>
			</g>
			<path fill="#263238" d="M320.3,125.1c0,0,0.3,14.4,9,16.2c8.7,1.7-0.8-18.6-0.8-18.6s-12.9-8.4-21.5-2.5s-0.9,13.6-0.9,13.6
				S307.9,123.1,320.3,125.1z"/>
			
				<path fill="none" stroke="#263238" stroke-width="0.5" stroke-linecap="round" stroke-linejoin="round" stroke-miterlimit="10" d="
				M320.6,124.2c0,0-3.1,9.1,3,13.9"/>
		</g>
		<g>
			<path fill="#28A8B2" d="M331.8,144.3c-1.1,2.9-3.9,4.6-6.3,3.7c-2.4-0.9-3.4-4-2.3-6.9s3.9-4.6,6.3-3.7
				C331.9,138.2,332.9,141.3,331.8,144.3z"/>
			<path opacity="0.4" enable-background="new    " d="M331.8,144.3c-1.1,2.9-3.9,4.6-6.3,3.7c-2.4-0.9-3.4-4-2.3-6.9
				s3.9-4.6,6.3-3.7C331.9,138.2,332.9,141.3,331.8,144.3z"/>
			<path fill="#28A8B2" d="M329,139.4c0,0,3.6-16.1-4.5-20.3c0,0,1.7,0.2,2.7,0.5s7.5,6.8,4.2,21.3L329,139.4z"/>
			<path opacity="0.2" enable-background="new    " d="M329,139.4c0,0,3.6-16.1-4.5-20.3c0,0,1.7,0.2,2.7,0.5s7.5,6.8,4.2,21.3
				L329,139.4z"/>
			<g>
				<g>
					<path fill="#407BFF" d="M313.9,148.6c-0.2,0-0.4-0.1-0.6-0.1l0.2-1c7.2,1.2,12.6-2.7,12.7-2.7l0.6,0.8
						C326.6,145.8,321.3,149.6,313.9,148.6z"/>
				</g>
				<g opacity="0.2" enable-background="new    ">
					<path d="M313.9,148.6c-0.2,0-0.4-0.1-0.6-0.1l0.2-1c7.2,1.2,12.6-2.7,12.7-2.7l0.6,0.8C326.6,145.8,321.3,149.6,313.9,148.6z"
						/>
				</g>
			</g>
			<path fill="#28A8B2" d="M331.5,143.9c-0.7,1.9-2.6,3-4.2,2.4s-2.3-2.6-1.5-4.6c0.7-1.9,2.6-3,4.2-2.4
				C331.5,139.9,332.2,141.9,331.5,143.9z"/>
			<g>
				<path fill="#28A8B2" d="M313.1,149l-0.8-0.1c-0.6-0.1-1-0.6-0.9-1.2l0,0c0.1-0.6,0.6-1,1.2-0.9l0.8,0.1c0.6,0.1,1,0.6,0.9,1.2
					l0,0C314.2,148.6,313.7,149,313.1,149z"/>
				<path opacity="0.4" enable-background="new    " d="M313.1,149l-0.8-0.1c-0.6-0.1-1-0.6-0.9-1.2l0,0c0.1-0.6,0.6-1,1.2-0.9
					l0.8,0.1c0.6,0.1,1,0.6,0.9,1.2l0,0C314.2,148.6,313.7,149,313.1,149z"/>
			</g>
		</g>
		<polygon fill="#28A8B2" points="323.9,158.8 317.9,164.7 320.3,171.8 328.6,162.7 		"/>
		<polygon fill="#28A8B2" points="315.3,160.1 316.2,164.6 313.2,170.9 311.2,162.7 		"/>
		<path fill="#E4897B" d="M322.6,163.9l3.5-12.6c0,0-1.7-3.1-1.3-3.8c0.4-0.7,2.2-9.1,3.4-10.1c1.3-0.9,6.5,0.7,7.1,1.5
			c0.5,0.9-5,12.4-5,12.4l-2,13.7L322.6,163.9z"/>
		<g>
			<path fill="#28A8B2" d="M343,166c9.5,9.7-9.5,31.7-20.4,30.8s0.3-40.9,0.3-40.9l7,1.1c0,0-2.5,17.3-1.7,18.6
				C329,177.1,339.9,162.8,343,166z"/>
			<path opacity="0.2" enable-background="new    " d="M343,166c9.5,9.7-9.5,31.7-20.4,30.8s0.3-40.9,0.3-40.9l7,1.1
				c0,0-2.5,17.3-1.7,18.6C329,177.1,339.9,162.8,343,166z"/>
			<polygon fill="#28A8B2" points="322.3,154.7 321.3,158 331,158.8 331,156 			"/>
		</g>
		<g>
			<path opacity="0.6" fill="#FFFFFF" enable-background="new    " d="M307.6,189.8h-3.9c-0.4,0-0.8-0.4-0.8-0.8v-7.4
				c0-0.4,0.4-0.8,0.8-0.8h3.9c0.4,0,0.8,0.4,0.8,0.8v7.4C308.3,189.5,308,189.8,307.6,189.8z"/>
			<rect x="303.2" y="181.4" opacity="0.2" enable-background="new    " width="4.5" height="6.1"/>
			<rect x="305" y="178.6" fill="#263238" width="1" height="3.6"/>
		</g>
		<path fill="#28A8B2" d="M223.7,334.2c1-0.5,2.1-0.7,3.2-0.8l0,0c0,0,3.8-2.2,7.6-10.9h4.2c1.5,0,2.8,0.9,3.3,2.3
			c0.1,0.2,0.1,0.4,0.1,0.6c0,1-0.2,2-0.3,3.1c-0.4,3.2-2.5,10-2.5,10l-0.7-0.2l1.3-6.3c0.4-2.1-1.8-0.1-2.9,2.1
			c-1,2.2-2.7,4.3-7.3,3.3C224.2,335.9,222,335.1,223.7,334.2z"/>
		<path fill="#E4897B" d="M235.2,320.2c0,0-5.3,11.1-8.3,13.2c0,0,4.1,2.4,8.3-3c5.5-7,6.8-5,6.8-5s-0.2-2.4-0.7-3.6
			C240.6,319.5,235.2,320.2,235.2,320.2z"/>
		<path fill="#28A8B2" d="M281.9,360.5c0.9-0.7,1.8-1.2,2.9-1.5l0,0c0,0,3.2-3.1,4.8-12.4l4.1-1c1.4-0.3,2.9,0.3,3.7,1.5
			c0.1,0.2,0.2,0.3,0.3,0.5c0.2,1,0.3,2,0.4,3c0.4,3.2,0,10.3,0,10.3h-0.7l-0.2-6.4c-0.1-2.2-1.8,0.4-2.3,2.7
			c-0.5,2.4-1.5,4.8-6.3,4.9C282.8,362.1,280.5,361.9,281.9,360.5z"/>
		<path fill="#E4897B" d="M289.8,344.2c0,0-2.5,12-5,14.8c0,0,4.5,1.4,7.4-4.9c3.7-8.1,5.4-6.5,5.4-6.5s-0.8-2.3-1.5-3.3
			C294.8,342.3,289.8,344.2,289.8,344.2z"/>
	</g>
</g>
<g id="Speech_bubble">
	<g>
		<path fill="#D8A737" d="M382.8,127.2h-34.9c-2.8,0-5.1-2.3-5.1-5.1v-14.9c0-2.8,2.3-5.1,5.1-5.1h34.9c2.8,0,5.1,2.3,5.1,5.1v14.9
			C387.8,125,385.6,127.2,382.8,127.2z"/>
		<polygon fill="#D8A737" points="354.9,124.4 344.3,138.7 361.3,125.3 		"/>
		<g>
			<path id="message-1" fill="#484848" d="M355.2,114.7c0,0.8-0.7,1.5-1.5,1.5s-1.5-0.7-1.5-1.5s0.7-1.5,1.5-1.5
				C354.6,113.2,355.2,113.9,355.2,114.7z"/>
			<path id="message-2" fill="#484848" d="M362.9,114.7c0,0.8-0.7,1.5-1.5,1.5s-1.5-0.7-1.5-1.5s0.7-1.5,1.5-1.5
				S362.9,113.9,362.9,114.7z"/>
			<path id="message-3" fill="#484848" d="M370.6,114.7c0,0.8-0.7,1.5-1.5,1.5s-1.5-0.7-1.5-1.5s0.7-1.5,1.5-1.5
				C370,113.2,370.6,113.9,370.6,114.7z"/>
			<path id="message-4" fill="#484848" d="M378.3,114.7c0,0.8-0.7,1.5-1.5,1.5s-1.5-0.7-1.5-1.5s0.7-1.5,1.5-1.5
				C377.7,113.2,378.3,113.9,378.3,114.7z"/>
		</g>
	</g>
</g>
<g id="Bird">
	<g>
		<g>
			<path fill="#28A8B2" d="M251.2,115.5l-28.3,0.5c-0.8,0-1.4-0.6-1.4-1.4l-0.3-16.7c0-0.8,0.6-1.4,1.4-1.4l28.3-0.5
				c0.8,0,1.4,0.6,1.4,1.4l0.3,16.7C252.5,114.8,251.9,115.5,251.2,115.5z"/>
			<path opacity="0.7" fill="#FFFFFF" enable-background="new    " d="M251.2,115.5l-28.3,0.5c-0.8,0-1.4-0.6-1.4-1.4l-0.3-16.7
				c0-0.8,0.6-1.4,1.4-1.4l28.3-0.5c0.8,0,1.4,0.6,1.4,1.4l0.3,16.7C252.5,114.8,251.9,115.5,251.2,115.5z"/>
			<path opacity="0.2" enable-background="new    " d="M221.2,99.2l13.9,8.9c1.1,0.7,2.5,0.7,3.5-0.1l13.4-9.3l-13.2,10.2
				c-1.2,0.9-2.8,0.9-4,0.1L221.2,99.2z"/>
		</g>
	</g>
</g>
<g id="Desk">
	<g>
		<g>
			<rect x="141.8" y="194" fill="#FFFFFF" width="38" height="7.8"/>
			<rect x="141.8" y="194" opacity="0.1" enable-background="new    " width="38" height="7.8"/>
			<rect x="141.8" y="194" opacity="0.1" enable-background="new    " width="16" height="7.8"/>
			<polygon opacity="0.1" enable-background="new    " points="141.8,195.2 175.6,195.2 141.8,196.1 			"/>
			<polygon opacity="0.1" enable-background="new    " points="179.8,196.5 150.5,197.2 179.8,197.2 			"/>
			<polygon opacity="0.1" enable-background="new    " points="143.4,198.7 157.8,198.1 179.1,198.7 157.8,199 			"/>
			<polygon opacity="0.1" enable-background="new    " points="141.8,200.3 166.9,200.3 141.8,200.9 			"/>
			<polygon opacity="0.1" enable-background="new    " points="179.8,200.9 163,201.2 179.8,201.2 			"/>
		</g>
		<g>
			<rect x="136.6" y="186.3" fill="#FFFFFF" width="38" height="7.8"/>
			<rect x="136.6" y="186.3" opacity="0.1" enable-background="new    " width="38" height="7.8"/>
			<rect x="136.6" y="186.3" opacity="0.1" enable-background="new    " width="16" height="7.8"/>
			<polygon opacity="0.1" enable-background="new    " points="136.6,187.4 170.4,187.4 136.6,188.3 			"/>
			<polygon opacity="0.1" enable-background="new    " points="174.5,188.7 145.2,189.5 174.5,189.5 			"/>
			<polygon opacity="0.1" enable-background="new    " points="138.1,190.9 152.6,190.3 173.8,190.9 152.6,191.2 			"/>
			<polygon opacity="0.1" enable-background="new    " points="136.6,192.6 161.6,192.6 136.6,193.1 			"/>
			<polygon opacity="0.1" enable-background="new    " points="174.5,193.1 157.8,193.5 174.5,193.5 			"/>
		</g>
		<g>
			<rect x="140.9" y="178.5" fill="#FFFFFF" width="38" height="7.8"/>
			<rect x="140.9" y="178.5" opacity="0.1" enable-background="new    " width="38" height="7.8"/>
			<rect x="140.9" y="178.5" opacity="0.1" enable-background="new    " width="16" height="7.8"/>
			<polygon opacity="0.1" enable-background="new    " points="140.9,179.6 174.7,179.6 140.9,180.5 			"/>
			<polygon opacity="0.1" enable-background="new    " points="178.9,180.9 149.6,181.7 178.9,181.7 			"/>
			<polygon opacity="0.1" enable-background="new    " points="142.4,183.1 156.9,182.5 178.1,183.1 156.9,183.5 			"/>
			<polygon opacity="0.1" enable-background="new    " points="140.9,184.8 165.9,184.8 140.9,185.4 			"/>
			<polygon opacity="0.1" enable-background="new    " points="178.8,185.4 162.1,185.7 178.9,185.7 			"/>
		</g>
		<g>
			<polygon fill="#263238" points="204.1,201.7 205.1,197.9 245.7,197.9 264.4,199.8 265.1,201.7 			"/>
			<polygon opacity="0.4" enable-background="new    " points="245.7,197.9 245.7,201.7 204.1,201.7 205.1,197.9 			"/>
		</g>
		<g>
			<path fill="#263238" d="M237.5,180.1c0.2,2-1.3,3.6-3.2,3.6h-62.1c-2,0-3.7-1.6-3.9-3.6l-3.7-39.8c0-0.4,0-0.8,0.1-1.2
				c0.3-1.4,1.6-2.4,3.1-2.4H230c2,0,3.7,1.6,3.9,3.6L237.5,180.1z"/>
			<path opacity="0.4" enable-background="new    " d="M234.1,183.6h-61.9c-2,0-3.7-1.6-3.9-3.6l-3.7-39.8c0-0.4,0-0.8,0.1-1.2h61.9
				c2,0,3.7,1.6,3.9,3.6l3.7,39.8C234.2,182.9,234.2,183.3,234.1,183.6z"/>
			<polygon fill="#263238" points="191.4,159.3 204.3,159.3 200.8,196.1 221.2,199.1 221.2,201.7 178.4,201.7 178.4,199.1 
				187.1,196.1 			"/>
			<polygon opacity="0.1" fill="#FFFFFF" enable-background="new    " points="204.3,159.3 194.8,201.1 187.1,200.9 191.4,159.3 			
				"/>
		</g>
		<g>
			<g>
				<polygon fill="#263238" points="204.2,362.1 198.1,362.1 187.1,208.8 195.2,208.8 				"/>
				<polygon opacity="0.4" fill="#FFFFFF" enable-background="new    " points="204.2,362.1 198.1,362.1 187.6,216.4 187.1,209.1 
					195.2,209.1 195.6,216.4 				"/>
				<polygon opacity="0.2" enable-background="new    " points="195.6,216.1 187.6,216.1 187.1,209.1 195.2,209.1 				"/>
			</g>
			<g>
				<polygon fill="#263238" points="249.2,362.1 243,362.1 242,208.8 250.2,208.8 				"/>
				<polygon opacity="0.5" fill="#FFFFFF" enable-background="new    " points="250.2,209.1 250,233.8 249.2,362.1 243,362.1 
					242.2,233.8 242,209.1 				"/>
				<polygon opacity="0.2" enable-background="new    " points="250.2,209.1 250,234.1 242.2,234.1 242,209.1 				"/>
			</g>
			<g>
				<polygon fill="#263238" points="314.2,362.1 308.1,362.1 297.1,208.8 305.2,208.8 				"/>
				<polygon opacity="0.5" fill="#FFFFFF" enable-background="new    " points="314.2,362.1 308.1,362.1 297.6,216.4 297.1,209.1 
					305.2,209.1 305.6,216.4 				"/>
				<polygon opacity="0.2" enable-background="new    " points="305.6,216.1 297.6,216.1 297.1,209.1 305.2,209.1 				"/>
			</g>
			<g>
				<polygon fill="#263238" points="134.1,362.1 128,362.1 137,208.8 145.1,208.8 				"/>
				<polygon opacity="0.5" fill="#FFFFFF" enable-background="new    " points="145.1,209.1 144.6,216.4 134.1,362.1 128,362.1 
					136.6,216.4 137,209.1 				"/>
				<polygon opacity="0.2" enable-background="new    " points="137,209.1 145.1,209.1 144.6,216.1 136.6,216.1 				"/>
			</g>
			<g>
				<path fill="#28A8B2" d="M309.5,212.7H132.7c-1.2,0-2.2-1-2.2-2.2V205h181.1v5.5C311.7,211.7,310.7,212.7,309.5,212.7z"/>
				<path opacity="0.6" fill="#FFFFFF" enable-background="new    " d="M309.5,212.7H132.7c-1.2,0-2.2-1-2.2-2.2V205h181.1v5.5
					C311.7,211.7,310.7,212.7,309.5,212.7z"/>
			</g>
			<rect x="130.6" y="205" opacity="0.2" enable-background="new    " width="181.1" height="3.8"/>
			<g>
				<path fill="#28A8B2" d="M315.4,206H126.8c-1.2,0-2.2-1-2.2-2.2l0,0c0-1.2,1-2.2,2.2-2.2h188.7c1.2,0,2.2,1,2.2,2.2l0,0
					C317.6,205,316.6,206,315.4,206z"/>
				<path opacity="0.6" fill="#FFFFFF" enable-background="new    " d="M315.4,206H126.8c-1.2,0-2.2-1-2.2-2.2l0,0
					c0-1.2,1-2.2,2.2-2.2h188.7c1.2,0,2.2,1,2.2,2.2l0,0C317.6,205,316.6,206,315.4,206z"/>
			</g>
		</g>
		<g>
			<path fill="#93D3D8" d="M270.8,195l2.3-3.5c0.5-0.7,1.2-1.1,2.1-1.1h2.9c0.2,0,0.5,0,0.7,0.1l10.5,3.2c0.6,0.2,1.1,0.6,1.4,1.1
				l1.5,2.5L270.8,195z"/>
			<path opacity="0.2" enable-background="new    " d="M292.3,197.3l-15.3-1.7l-6.2-0.7l2.3-3.5c0.5-0.7,1.2-1.1,2.1-1.1h2.9
				c0.2,0,0.5,0,0.7,0.1l0.2,0.1l10.2,3.1c0.6,0.2,1.1,0.6,1.4,1.1L292.3,197.3z"/>
			<path opacity="0.2" enable-background="new    " d="M292.3,197.3l-15.3-1.7l2.1-5.1l10.2,3.1c0.6,0.2,1.1,0.6,1.4,1.1
				L292.3,197.3z"/>
			<path fill="#93D3D8" d="M299.5,201.3v0.3h-13.3h-19.1l1.2-4.7c0.5-1.8,2.1-3,3.9-3h14.4c0.5,0,0.9,0.1,1.4,0.2l1.8,0.7l7.1,2.7
				C298.5,198.2,299.5,199.7,299.5,201.3z"/>
			<path opacity="0.2" enable-background="new    " d="M299.5,201.3v0.3h-13.3l0,0l0.7-5.1c0.2-1.3,1.6-2.2,2.8-1.7l7.1,2.7
				C298.5,198.2,299.5,199.7,299.5,201.3z"/>
			<path fill="#263238" d="M288.3,198.2l4.2-12.7c0.2-0.5,0.8-0.8,1.3-0.5l0,0c0.4,0.2,0.6,0.6,0.5,1.1l-3.6,13.6
				C290.8,199.6,288.4,200.6,288.3,198.2z"/>
			<polygon opacity="0.2" enable-background="new    " points="270.8,200.6 268.9,200.6 269.3,198.8 271.2,198.8 			"/>
			<polygon opacity="0.2" enable-background="new    " points="273.6,200.5 271.7,200.5 272.1,198.7 274,198.7 			"/>
		</g>
	</g>
</g>
</svg>
